<?xml version="1.0" encoding="UTF-8"?>
<svg xmlns="http://www.w3.org/2000/svg" width="353" height="68" viewBox="0 0 353 68" fill="none">
  <path d="M66.0781 24C66.0781 26 65.2381 27.84 63.5581 29.52C61.9048 31.1733 60.0781 32 58.0781 32H54.0781C52.0781 32 50.2381 31.1733 48.5581 29.52C46.9048 27.84 46.0781 26 46.0781 24H50.0781C50.0781 24.9867 50.4915 25.9067 51.3181 26.76C52.1715 27.5867 53.0915 28 54.0781 28H58.0781C59.0915 28 60.0115 27.5867 60.8381 26.76C61.6648 25.9067 62.0781 24.9867 62.0781 24C62.0781 22.9867 61.6648 22.0667 60.8381 21.24C60.0115 20.4133 59.0915 20 58.0781 20H54.0781C52.0781 20 50.2381 19.1733 48.5581 17.52C46.9048 15.84 46.0781 14 46.0781 12C46.0781 10 46.9048 8.17333 48.5581 6.52C50.2381 4.84 52.0781 4 54.0781 4H58.0781C60.0781 4 61.9048 4.84 63.5581 6.52C65.2381 8.17333 66.0781 10 66.0781 12H62.0781C62.0781 10.9867 61.6648 10.0667 60.8381 9.24C60.0115 8.41333 59.0915 8 58.0781 8H54.0781C53.0915 8 52.1715 8.41333 51.3181 9.24C50.4915 10.0667 50.0781 10.9867 50.0781 12C50.0781 12.9867 50.4915 13.9067 51.3181 14.76C52.1715 15.5867 53.0915 16 54.0781 16H58.0781C60.0781 16 61.9048 16.84 63.5581 18.52C65.2381 20.1733 66.0781 22 66.0781 24ZM90.0625 24C90.0625 26 89.2225 27.84 87.5425 29.52C85.8892 31.1733 84.0625 32 82.0625 32H74.0625V40H70.0625V12H82.0625C84.0625 12 85.8892 12.84 87.5425 14.52C89.2225 16.1733 90.0625 18 90.0625 20V24ZM86.0625 24V20C86.0625 19.04 85.6358 18.1333 84.7825 17.28C83.9292 16.4267 83.0225 16 82.0625 16H74.0625V28H82.0625C83.0758 27.9467 83.9958 27.52 84.8225 26.72C85.6492 25.8933 86.0625 24.9867 86.0625 24ZM114.047 24H98.0469C98.0469 24.96 98.4735 25.8667 99.3269 26.72C100.18 27.5733 101.087 28 102.047 28H110.047V32H102.047C100.047 32 98.2069 31.1733 96.5269 29.52C94.8735 27.84 94.0469 26 94.0469 24V20C94.0469 18 94.8735 16.1733 96.5269 14.52C98.2069 12.84 100.047 12 102.047 12H106.047C108.34 12 110.3 12.96 111.927 14.88C113.34 16.56 114.047 18.2667 114.047 20V24ZM110.047 20C110.047 18.9867 109.634 18.0667 108.807 17.24C107.98 16.4133 107.06 16 106.047 16H102.047C101.034 16.0533 100.114 16.4933 99.2869 17.32C98.4602 18.12 98.0469 19.0133 98.0469 20H110.047ZM138.031 32H124.031C122.538 32 121.165 31.3733 119.911 30.12C118.658 28.8667 118.031 27.4933 118.031 26C118.031 24.5067 118.658 23.1333 119.911 21.88C121.165 20.6267 122.538 20 124.031 20H134.031C134.031 19.0133 133.618 18.12 132.791 17.32C131.965 16.4933 131.045 16.0533 130.031 16C130.031 16.0533 127.365 16.0533 122.031 16V12H130.031C132.031 12 133.858 12.84 135.511 14.52C137.191 16.1733 138.031 18 138.031 20V32ZM134.031 28V24H124.031C123.498 24 123.031 24.2133 122.631 24.64C122.231 25.04 122.031 25.4933 122.031 26C122.031 26.5067 122.231 26.9733 122.631 27.4C123.031 27.8 123.498 28 124.031 28H134.031ZM162.016 32H158.016L150.016 24V32H146.016V4H150.016V20L158.016 12H162.016V14L154.016 22L162.016 30V32ZM186 32H166V4H170V28H186V32ZM209.984 24H193.984C193.984 24.96 194.411 25.8667 195.264 26.72C196.118 27.5733 197.024 28 197.984 28H205.984V32H197.984C195.984 32 194.144 31.1733 192.464 29.52C190.811 27.84 189.984 26 189.984 24V20C189.984 18 190.811 16.1733 192.464 14.52C194.144 12.84 195.984 12 197.984 12H201.984C204.278 12 206.238 12.96 207.864 14.88C209.278 16.56 209.984 18.2667 209.984 20V24ZM205.984 20C205.984 18.9867 205.571 18.0667 204.744 17.24C203.918 16.4133 202.998 16 201.984 16H197.984C196.971 16.0533 196.051 16.4933 195.224 17.32C194.398 18.12 193.984 19.0133 193.984 20H205.984ZM233.969 32H219.969C218.475 32 217.102 31.3733 215.849 30.12C214.595 28.8667 213.969 27.4933 213.969 26C213.969 24.5067 214.595 23.1333 215.849 21.88C217.102 20.6267 218.475 20 219.969 20H229.969C229.969 19.0133 229.555 18.12 228.729 17.32C227.902 16.4933 226.982 16.0533 225.969 16C225.969 16.0533 223.302 16.0533 217.969 16V12H225.969C227.969 12 229.795 12.84 231.449 14.52C233.129 16.1733 233.969 18 233.969 20V32ZM229.969 28V24H219.969C219.435 24 218.969 24.2133 218.569 24.64C218.169 25.04 217.969 25.4933 217.969 26C217.969 26.5067 218.169 26.9733 218.569 27.4C218.969 27.8 219.435 28 219.969 28H229.969ZM257.953 26C257.953 27.4933 257.326 28.8667 256.073 30.12C254.82 31.3733 253.446 32 251.953 32H237.953V28H251.953C252.433 28 252.9 27.8 253.353 27.4C253.806 26.9733 254.033 26.52 254.033 26.04C254.033 25.5333 253.806 25.0667 253.353 24.64C252.926 24.2133 252.46 24 251.953 24H243.953C242.46 24 241.086 23.3733 239.833 22.12C238.58 20.8667 237.953 19.4933 237.953 18C237.953 16.5067 238.58 15.1333 239.833 13.88C241.086 12.6267 242.46 12 243.953 12H257.953V16H243.953C243.473 16 243.006 16.2133 242.553 16.64C242.1 17.04 241.873 17.48 241.873 17.96C241.873 18.4667 242.1 18.9333 242.553 19.36C243.006 19.7867 243.473 20 243.953 20H251.953C253.446 20 254.82 20.6267 256.073 21.88C257.326 23.1333 257.953 24.5067 257.953 26ZM281.938 32H277.938V20C277.938 18.9867 277.524 18.0667 276.698 17.24C275.871 16.4133 274.951 16 273.938 16H265.938V32H261.938V4H265.938V12H273.938C275.938 12 277.764 12.84 279.418 14.52C281.098 16.1733 281.938 18 281.938 20V32Z" fill="#FFA629"></path>
  <path d="M55.3105 54L46.3105 63L45.3105 60L54.3105 51L55.3105 54ZM57.7027 48.8V54.08H56.1027V48.8H57.7027ZM70.5059 61C70.5059 61.7467 70.1925 62.4333 69.5659 63.06C68.9392 63.6867 68.2525 64 67.5059 64H60.5059V62H67.5059C67.7459 62 67.9792 61.9 68.2059 61.7C68.4325 61.4867 68.5459 61.26 68.5459 61.02C68.5459 60.7667 68.4325 60.5333 68.2059 60.32C67.9925 60.1067 67.7592 60 67.5059 60H63.5059C62.7592 60 62.0725 59.6867 61.4459 59.06C60.8192 58.4333 60.5059 57.7467 60.5059 57C60.5059 56.2533 60.8192 55.5667 61.4459 54.94C62.0725 54.3133 62.7592 54 63.5059 54H70.5059V56H63.5059C63.2659 56 63.0325 56.1067 62.8059 56.32C62.5792 56.52 62.4659 56.74 62.4659 56.98C62.4659 57.2333 62.5792 57.4667 62.8059 57.68C63.0325 57.8933 63.2659 58 63.5059 58H67.5059C68.2525 58 68.9392 58.3133 69.5659 58.94C70.1925 59.5667 70.5059 60.2533 70.5059 61ZM82.498 60C82.498 61 82.078 61.92 81.238 62.76C80.4114 63.5867 79.498 64 78.498 64H74.498V68H72.498V54H78.498C79.498 54 80.4114 54.42 81.238 55.26C82.078 56.0867 82.498 57 82.498 58V60ZM80.498 60V58C80.498 57.52 80.2847 57.0667 79.858 56.64C79.4314 56.2133 78.978 56 78.498 56H74.498V62H78.498C79.0047 61.9733 79.4647 61.76 79.878 61.36C80.2914 60.9467 80.498 60.4933 80.498 60ZM90.4902 52H88.4902V50H90.4902V52ZM92.4902 64H86.4902V62H88.4902V56H86.4902V54H90.4902V62H92.4902V64ZM106.482 64H104.982L101.482 60.5L97.9824 64H96.4824V62.5L99.9824 59L96.4824 55.5V54H97.9824L101.482 57.5L104.982 54H106.482V55.5L102.982 59L106.482 62.5V64ZM114.475 64H112.475V62H114.475V64ZM128.467 64H122.467V62H124.467V52H122.467V50H126.467V62H128.467V64ZM137.559 57.7V59.14H136.099C135.419 59.14 134.852 59.2133 134.399 59.36C133.959 59.4933 133.626 59.6933 133.399 59.96C133.186 60.2267 133.079 60.5667 133.079 60.98C133.079 61.42 133.206 61.7733 133.459 62.04C133.712 62.2933 134.052 62.48 134.479 62.6C134.906 62.7067 135.386 62.76 135.919 62.76C136.666 62.76 137.319 62.6733 137.879 62.5C138.452 62.3267 138.959 62.1333 139.399 61.92V63.46C139.132 63.6067 138.826 63.74 138.479 63.86C138.132 63.9667 137.739 64.0467 137.299 64.1C136.859 64.1667 136.366 64.2 135.819 64.2C134.806 64.2 133.966 64.0667 133.299 63.8C132.632 63.52 132.132 63.1467 131.799 62.68C131.479 62.2 131.319 61.6667 131.319 61.08C131.319 60.5467 131.426 60.1133 131.639 59.78C131.866 59.4333 132.159 59.16 132.519 58.96C132.879 58.7467 133.272 58.58 133.699 58.46V58.36C133.099 58.1733 132.612 57.8867 132.239 57.5C131.879 57.1 131.699 56.5733 131.699 55.92C131.699 55.32 131.872 54.8067 132.219 54.38C132.579 53.9533 133.066 53.6333 133.679 53.42C134.306 53.1933 135.019 53.08 135.819 53.08C136.339 53.08 136.806 53.1133 137.219 53.18C137.632 53.2333 138.019 53.32 138.379 53.44C138.739 53.5467 139.092 53.68 139.439 53.84L138.779 55.24C138.339 55.04 137.886 54.8733 137.419 54.74C136.966 54.6067 136.426 54.54 135.799 54.54C134.999 54.54 134.392 54.6667 133.979 54.92C133.579 55.1733 133.379 55.5533 133.379 56.06C133.379 56.6467 133.652 57.0667 134.199 57.32C134.759 57.5733 135.506 57.7 136.439 57.7H137.559ZM148.807 61.04C148.807 61.7333 148.634 62.3133 148.287 62.78C147.94 63.2467 147.447 63.6 146.807 63.84C146.167 64.08 145.407 64.2 144.527 64.2C144.234 64.2 143.947 64.1867 143.667 64.16C143.4 64.1467 143.154 64.12 142.927 64.08V64.62C142.927 65.0467 142.98 65.4 143.087 65.68C143.194 65.9733 143.354 66.1867 143.567 66.32C143.794 66.4667 144.087 66.54 144.447 66.54C144.674 66.54 144.887 66.5133 145.087 66.46C145.3 66.42 145.494 66.3733 145.667 66.32V67.66C145.48 67.7533 145.274 67.8267 145.047 67.88C144.834 67.9467 144.554 67.98 144.207 67.98C143.62 67.98 143.094 67.88 142.627 67.68C142.174 67.4933 141.814 67.1533 141.547 66.66C141.294 66.18 141.167 65.5067 141.167 64.64V61.92C141.594 62.1333 142.107 62.3333 142.707 62.52C143.32 62.6933 143.94 62.78 144.567 62.78C145.46 62.78 146.107 62.64 146.507 62.36C146.907 62.0667 147.107 61.68 147.107 61.2C147.107 60.9333 147.034 60.6933 146.887 60.48C146.74 60.2667 146.474 60.0533 146.087 59.84C145.714 59.6267 145.174 59.3867 144.467 59.12C143.774 58.8533 143.18 58.5867 142.687 58.32C142.194 58.0533 141.814 57.7333 141.547 57.36C141.28 56.9867 141.147 56.5067 141.147 55.92C141.147 55.0133 141.514 54.3133 142.247 53.82C142.994 53.3267 143.967 53.08 145.167 53.08C145.82 53.08 146.427 53.1467 146.987 53.28C147.56 53.4 148.094 53.5733 148.587 53.8L147.987 55.2C147.694 55.0667 147.38 54.9533 147.047 54.86C146.727 54.7533 146.4 54.6733 146.067 54.62C145.734 54.5533 145.394 54.52 145.047 54.52C144.327 54.52 143.774 54.64 143.387 54.88C143.014 55.1067 142.827 55.42 142.827 55.82C142.827 56.1133 142.914 56.3667 143.087 56.58C143.26 56.78 143.547 56.98 143.947 57.18C144.36 57.3667 144.907 57.5933 145.587 57.86C146.267 58.1133 146.847 58.3733 147.327 58.64C147.807 58.9067 148.174 59.2333 148.427 59.62C148.68 59.9933 148.807 60.4667 148.807 61.04ZM161.697 54L152.697 63L151.697 60L160.697 51L161.697 54Z" fill="#A75E00"></path>
  <path d="M185.059 64H178.059C177.312 64 176.625 63.6867 175.999 63.06C175.372 62.4333 175.059 61.7467 175.059 61C175.059 60.2533 175.372 59.5667 175.999 58.94C176.625 58.3133 177.312 58 178.059 58H183.059C183.059 57.5067 182.852 57.06 182.439 56.66C182.025 56.2467 181.565 56.0267 181.059 56C181.059 56.0267 179.725 56.0267 177.059 56V54H181.059C182.059 54 182.972 54.42 183.799 55.26C184.639 56.0867 185.059 57 185.059 58V64ZM183.059 62V60H178.059C177.792 60 177.559 60.1067 177.359 60.32C177.159 60.52 177.059 60.7467 177.059 61C177.059 61.2533 177.159 61.4867 177.359 61.7C177.559 61.9 177.792 62 178.059 62H183.059ZM193.051 64H191.051V62H193.051V64ZM209.043 64H207.043L203.043 60V64H201.043V50H203.043V58L207.043 54H209.043V55L205.043 59L209.043 63V64ZM217.035 64H215.035V62H217.035V64ZM233.027 64H226.027C225.281 64 224.594 63.6867 223.967 63.06C223.341 62.4333 223.027 61.7467 223.027 61C223.027 60.2533 223.341 59.5667 223.967 58.94C224.594 58.3133 225.281 58 226.027 58H231.027C231.027 57.5067 230.821 57.06 230.407 56.66C229.994 56.2467 229.534 56.0267 229.027 56C229.027 56.0267 227.694 56.0267 225.027 56V54H229.027C230.027 54 230.941 54.42 231.767 55.26C232.607 56.0867 233.027 57 233.027 58V64ZM231.027 62V60H226.027C225.761 60 225.527 60.1067 225.327 60.32C225.127 60.52 225.027 60.7467 225.027 61C225.027 61.2533 225.127 61.4867 225.327 61.7C225.527 61.9 225.761 62 226.027 62H231.027ZM257.012 60C257.012 61 256.592 61.92 255.752 62.76C254.925 63.5867 254.012 64 253.012 64H251.012C250.012 64 249.092 63.5867 248.252 62.76C247.425 61.92 247.012 61 247.012 60H249.012C249.012 60.4933 249.218 60.9533 249.632 61.38C250.058 61.7933 250.518 62 251.012 62H253.012C253.518 62 253.978 61.7933 254.392 61.38C254.805 60.9533 255.012 60.4933 255.012 60C255.012 59.4933 254.805 59.0333 254.392 58.62C253.978 58.2067 253.518 58 253.012 58H251.012C250.012 58 249.092 57.5867 248.252 56.76C247.425 55.92 247.012 55 247.012 54C247.012 53 247.425 52.0867 248.252 51.26C249.092 50.42 250.012 50 251.012 50H253.012C254.012 50 254.925 50.42 255.752 51.26C256.592 52.0867 257.012 53 257.012 54H255.012C255.012 53.4933 254.805 53.0333 254.392 52.62C253.978 52.2067 253.518 52 253.012 52H251.012C250.518 52 250.058 52.2067 249.632 52.62C249.218 53.0333 249.012 53.4933 249.012 54C249.012 54.4933 249.218 54.9533 249.632 55.38C250.058 55.7933 250.518 56 251.012 56H253.012C254.012 56 254.925 56.42 255.752 57.26C256.592 58.0867 257.012 59 257.012 60ZM269.004 60C269.004 61 268.584 61.92 267.744 62.76C266.917 63.5867 266.004 64 265.004 64H261.004V68H259.004V54H265.004C266.004 54 266.917 54.42 267.744 55.26C268.584 56.0867 269.004 57 269.004 58V60ZM267.004 60V58C267.004 57.52 266.791 57.0667 266.364 56.64C265.937 56.2133 265.484 56 265.004 56H261.004V62H265.004C265.511 61.9733 265.971 61.76 266.384 61.36C266.797 60.9467 267.004 60.4933 267.004 60ZM276.996 52H274.996V50H276.996V52ZM278.996 64H272.996V62H274.996V56H272.996V54H276.996V62H278.996V64ZM292.988 64H286.988C285.988 64 285.068 63.5867 284.228 62.76C283.402 61.92 282.988 61 282.988 60V58C282.988 57 283.402 56.0867 284.228 55.26C285.068 54.42 285.988 54 286.988 54H292.988V56H286.988C286.482 56.0267 286.022 56.2467 285.608 56.66C285.195 57.06 284.988 57.5067 284.988 58V60C284.988 60.48 285.202 60.9333 285.628 61.36C286.055 61.7867 286.508 62 286.988 62H292.988V64ZM304.98 64H302.98V58C302.98 57.4933 302.774 57.0333 302.36 56.62C301.947 56.2067 301.487 56 300.98 56H296.98V64H294.98V50H296.98V54H300.98C301.98 54 302.894 54.42 303.72 55.26C304.56 56.0867 304.98 57 304.98 58V64ZM314.973 64H308.973V62H310.973V52H308.973V50H312.973V62H314.973V64ZM328.965 60H320.965C320.965 60.48 321.178 60.9333 321.605 61.36C322.032 61.7867 322.485 62 322.965 62H326.965V64H322.965C321.965 64 321.045 63.5867 320.205 62.76C319.378 61.92 318.965 61 318.965 60V58C318.965 57 319.378 56.0867 320.205 55.26C321.045 54.42 321.965 54 322.965 54H324.965C326.112 54 327.092 54.48 327.905 55.44C328.612 56.28 328.965 57.1333 328.965 58V60ZM326.965 58C326.965 57.4933 326.758 57.0333 326.345 56.62C325.932 56.2067 325.472 56 324.965 56H322.965C322.458 56.0267 321.998 56.2467 321.585 56.66C321.172 57.06 320.965 57.5067 320.965 58H326.965ZM340.957 56H338.957C337.957 56 337.037 56.42 336.197 57.26C335.37 58.0867 334.957 59 334.957 60V64H332.957V54H334.957V55.76C336.184 54.5867 337.517 54 338.957 54H340.957V56ZM352.949 64H342.949V62.5L349.449 56H342.949V54H352.949V55.5L346.449 62H352.949V64Z" fill="#A75E00"></path>
  <path d="M2 29.0293L13.8242 17.2051L2 5.38095" stroke="#A75E00" stroke-width="3" stroke-linecap="round" stroke-linejoin="round"></path>
  <line x1="22.1776" y1="29.5" x2="34.1776" y2="29.5" stroke="#A75E00" stroke-width="3" stroke-linecap="round"></line>
</svg>
